# xmcd CD database file
#
# Track frame offsets:
#	150
#	28160
#	45369
#	59503
#	80185
#	94303
#	122319
#	142632
#	162561
#	175361
#	192449
#	220351
#	239776
#	254046
#	269828
#
# Disc length: 3943 seconds
#
# Revision: 0
# Processed by: cddbd v1.5.2PL0 Copyright (c) Steve Scherf et al.
# Submitted via: CDex 1.81
#
DISCID=eb0f650f
DTITLE=Martin Taylor - SOLO
DYEAR=2002
DGENRE=Jazz
TTITLE0=I'm Old Fashioned
TTITLE1=True
TTITLE2=Moose the Mooche
TTITLE3=I Thought About You
TTITLE4=I'm On My Way
TTITLE5=Darn That Dream
TTITLE6=Li'l Darlin'
TTITLE7=In A Mellow Tone
TTITLE8=Tennessee Waltz
TTITLE9=Girl Talk
TTITLE10=My Romance
TTITLE11=Some Day My Prince Will Come
TTITLE12=Joyspring
TTITLE13=Wasabi Greens
TTITLE14=Mouse's Spinney
EXTD=YEAR: 2002
EXTT0=
EXTT1=
EXTT2=
EXTT3=
EXTT4=
EXTT5=
EXTT6=
EXTT7=
EXTT8=
EXTT9=
EXTT10=
EXTT11=
EXTT12=
EXTT13=
EXTT14=
PLAYORDER=
